<svg width="18" height="18" viewBox="0 0 18 18" fill="none" xmlns="http://www.w3.org/2000/svg">
<path d="M8.99922 11.1595C8.31672 11.1595 7.76172 10.6045 7.76172 9.92203V8.06955C7.76172 7.38705 8.31672 6.83203 8.99922 6.83203C9.68172 6.83203 10.2367 7.38705 10.2367 8.06955V9.92203C10.2367 10.6045 9.68172 11.1595 8.99922 11.1595Z" stroke="#292D32" stroke-width="1.5" stroke-linecap="round"/>
<path d="M12.735 10.1022C12.585 12.0372 10.965 13.5523 9 13.5523C6.93 13.5523 5.25 11.8723 5.25 9.80228V8.19727C5.25 6.12727 6.93 4.44727 9 4.44727C10.9425 4.44727 12.54 5.92476 12.7275 7.81476" stroke="#292D32" stroke-width="1.5" stroke-linecap="round"/>
<path d="M11.25 1.5H12.75C15 1.5 16.5 3 16.5 5.25V6.75" stroke="#292D32" stroke-width="1.5" stroke-miterlimit="10" stroke-linecap="round" stroke-linejoin="round"/>
<path d="M1.5 6.75V5.25C1.5 3 3 1.5 5.25 1.5H6.75" stroke="#292D32" stroke-width="1.5" stroke-miterlimit="10" stroke-linecap="round" stroke-linejoin="round"/>
<path d="M11.25 16.5H12.75C15 16.5 16.5 15 16.5 12.75V11.25" stroke="#292D32" stroke-width="1.5" stroke-miterlimit="10" stroke-linecap="round" stroke-linejoin="round"/>
<path d="M1.5 11.25V12.75C1.5 15 3 16.5 5.25 16.5H6.75" stroke="#292D32" stroke-width="1.5" stroke-miterlimit="10" stroke-linecap="round" stroke-linejoin="round"/>
</svg>
